#!OML:ASF F:\VICON\USERDATA\INSTALL\rory3\rory3.ASF
:FULLY-SPECIFIED
:DEGREES
81
root 0.45242675698293333 17.854652363950926 39.56339263308503 -1.952753454193179 -3.4473026673504936 -7.837207637152185
lfemur -28.067805528156367 0.04400106555133676 -9.974672207265504
ltibia 48.19209766325984
lfoot -6.594383096144757 3.0582637908838164
ltoes -7.27889098792974
rfemur -0.10908294283903963 6.8606839532151085 35.780444526142844
rtibia 24.314886247325454
rfoot -20.926921963769793 -8.592767168359696
rtoes 11.145958767588587
lowerback 10.24105567891177 1.4730879914723518 6.581177639183105
upperback 0.39345701583067144 2.8573095661083276 2.487334112058872
thorax -5.052105586278943 1.2763441142346985 -1.5928247541131304
lowerneck -15.98289095919411 -2.9208035159225805 -2.1724754404875033
upperneck 19.305837960767178 -3.6864095782638477 0.9928311273708735
head 8.694988748071923 -1.7976901116695616 0.2298814380723102
lclavicle -6.525140395814047e-16 -5.712140302842227e-16
lhumerus -34.05854205862255 5.970221325140301 81.47305548601679
lradius 26.51032355461586
lwrist 6.039403529002609
lhand -30.35035201173443 18.919003106130077
lfingers 7.125020000000058
lthumb -3.6554425609215757 48.88846646763291
rclavicle -6.525140395814047e-16 -5.712140302842227e-16
rhumerus -24.161234594876024 -9.882472948382073 -82.41744315196506
rradius 32.70840945533911
rwrist -1.5441097927569079
rhand -17.475075855301032 30.18052670586342
rfingers 7.125020000000058
rthumb 8.777104731244435 -5.706836796105796
82
root 0.43429443096803205 17.767510398472847 39.160318054907194 -1.2113225205058704 -4.087975520037189 -8.459121407227169
lfemur -28.846570775959353 -2.5526396432699228 -8.550985493421488
ltibia 34.252378775404665
lfoot -6.737904499897182 5.745986935073231
ltoes -7.320443656331172
rfemur 2.5883507499936993 6.994495804778588 36.22695002774793
rtibia 21.341056210979147
rfoot -22.888553236133898 -8.918405918678335
rtoes 8.494175304822456
lowerback 9.839374494126726 1.7456047685777865 7.11551834413742
upperback 0.2990011304909385 3.2638146646437063 2.446819955091879
thorax -4.9509395890874766 1.466329930051622 -2.086958175881232
lowerneck -16.323874188099552 -2.966194903690602 -2.0827693328795323
upperneck 18.951755596259712 -3.765561936655103 0.9162985540300562
head 8.634918896616453 -1.8275535859582681 0.18162390984484406
lclavicle -1.2236890120419982e-15 -1.0134764582375797e-15
lhumerus -35.47818589631277 7.707983527561838 80.60599670240839
lradius 24.18756838547602
lwrist 5.161813707916156
lhand -30.425357890873574 18.98515116808327
lfingers 7.125020000000056
lthumb -3.7278664532899164 48.95364563777202
rclavicle -1.2236890120419982e-15 -1.0134764582375797e-15
rhumerus -22.3858713482617 -8.765949612361057 -83.06617354340071
rradius 33.16151610306447
rwrist -2.9893640794389515
rhand -17.602928549363554 30.110869776289842
rfingers 7.125020000000056
rthumb 8.653662024497642 -5.318885218032208
83
root 0.4465388112695602 17.69414032595261 39.47220708676723 -0.4985198887260819 -4.483114909385556 -8.690618075913205
lfemur -28.169781306805756 -4.805746720193533 -7.333195857945874
ltibia 23.230440070639947
lfoot -6.198159606461745 7.639467647283047
ltoes -7.3047328634836575
rfemur 5.957853618078209 7.180627507989751 36.5772644009178
rtibia 20.030845904216587
rfoot -24.096146278220235 -8.667657215465733
rtoes 4.8306384419414705
lowerback 9.505916069903414 2.0285784963193487 7.490317613459236
upperback 0.25009214521421047 3.65717402835522 2.4256666033947
thorax -4.747349857166014 1.6538979312844715 -2.30320285527797
lowerneck -16.50002755520425 -2.9729440223554633 -1.9717042162601788
upperneck 18.921359933406666 -3.7939830634718055 0.9400975800767833
head 8.658556844287544 -1.8344833714716728 0.1647288829469242
lclavicle -9.260237266753987e-16 -7.829933649455541e-16
lhumerus -36.12655510120866 9.973024808016328 79.85487521635736
lradius 23.07505988223388
lwrist 4.452349301921023
lhand -30.28103148330964 19.731927392008828
lfingers 7.125020000000057
lthumb -3.5884780899926163 49.700577067024746
rclavicle -9.260237266753987e-16 -7.829933649455541e-16
rhumerus -20.465864871143722 -7.860699316742747 -83.0117865601907
rradius 34.69241295237414
rwrist -3.3227150047296323
rhand -17.65682114101664 30.300974636474738
rfingers 7.125020000000057
rthumb 8.6016010745777 -4.859462649013807
84
root 0.428467919454475 17.611664571910826 38.717478913545115 -0.2601110517239694 -4.921151079151649 -8.784965736235463
lfemur -28.21922285950823 -6.239564099620269 -7.326001057862484
ltibia 15.162589507128043
lfoot -5.95538912782616 7.432810244533848
ltoes -7.660371004481453
rfemur 8.215958433512016 7.097187103508098 36.169657303911514
rtibia 18.981030035451166
rfoot -25.198600703750206 -8.03995002456075
rtoes -0.30598523013605794
lowerback 9.076355886401162 2.1746676226126365 7.37280112258193
upperback 0.17975991574361588 3.815243823676292 2.2994333134696383
thorax -4.665480973095722 1.7384345781135524 -2.4991385259015315
lowerneck -16.644214906476478 -3.047208000410427 -1.9133891948786022
upperneck 18.80767376441213 -3.926098729633912 0.8920985284589993
head 8.645918632234512 -1.885795422074561 0.12732730198313924
lclavicle -1.647544938462988e-15 -1.3416693227450138e-15
lhumerus -37.38376717788553 11.830921506535867 78.66213852918523
lradius 19.807291509988033
lwrist 2.622925679623167
lhand -30.210888294092108 19.91552583768418
lfingers 7.125020000000055
lthumb -3.520718354990475 49.88466622115908
rclavicle -1.647544938462988e-15 -1.3416693227450138e-15
rhumerus -19.800544883278214 -8.554315078660805 -83.29466702636769
rradius 33.83294356320768
rwrist -3.680915250389101
rhand -17.790904181813616 30.08945811307069
rfingers 7.125020000000055
rthumb 8.47216053146585 -5.019209823816009
